<svg xmlns="http://www.w3.org/2000/svg" width="980" height="450" viewBox="0 0 980 450">
<style>
text { font-family: "DejaVu Sans", Arial, sans-serif; fill: #1f2937; }
.title { font-size: 20px; font-weight: 700; }
.axis { font-size: 12px; }
.tick { font-size: 11px; }
.val { font-size: 11px; font-weight: 600; }
</style>
<rect x="0" y="0" width="100%" height="100%" fill="#ffffff"/>
<text class="title" x="90" y="34">Qwen3.5 throughput: sampled_topk40</text>
<text class="axis" x="90" y="53">Decode throughput (tok/s), higher is better</text>
<line x1="90" y1="60.00" x2="940" y2="60.00" stroke="#e5e7eb" stroke-width="1"/>
<text class="tick" x="82" y="64.00" text-anchor="end">190</text>
<line x1="90" y1="116.00" x2="940" y2="116.00" stroke="#e5e7eb" stroke-width="1"/>
<text class="tick" x="82" y="120.00" text-anchor="end">152</text>
<line x1="90" y1="172.00" x2="940" y2="172.00" stroke="#e5e7eb" stroke-width="1"/>
<text class="tick" x="82" y="176.00" text-anchor="end">114</text>
<line x1="90" y1="228.00" x2="940" y2="228.00" stroke="#e5e7eb" stroke-width="1"/>
<text class="tick" x="82" y="232.00" text-anchor="end">76</text>
<line x1="90" y1="284.00" x2="940" y2="284.00" stroke="#e5e7eb" stroke-width="1"/>
<text class="tick" x="82" y="288.00" text-anchor="end">38</text>
<line x1="90" y1="340.00" x2="940" y2="340.00" stroke="#e5e7eb" stroke-width="1"/>
<text class="tick" x="82" y="344.00" text-anchor="end">0</text>
<line x1="90" y1="60" x2="90" y2="340" stroke="#111827" stroke-width="1.5"/>
<line x1="90" y1="340" x2="940" y2="340" stroke="#111827" stroke-width="1.5"/>
<rect x="132.50" y="118.79" width="51.00" height="221.21" fill="#1f77b4"/>
<rect x="200.50" y="98.03" width="51.00" height="241.97" fill="#ff7f0e"/>
<text class="val" x="158.00" y="112.79" text-anchor="middle">150.11</text>
<text class="val" x="226.00" y="92.03" text-anchor="middle">164.19</text>
<text class="axis" x="187.75" y="364" text-anchor="middle">0.8b</text>
<text class="tick" x="187.75" y="380" text-anchor="middle">P:128.0 O:128.0</text>
<rect x="345.00" y="219.62" width="51.00" height="120.38" fill="#1f77b4"/>
<rect x="413.00" y="211.75" width="51.00" height="128.25" fill="#ff7f0e"/>
<text class="val" x="370.50" y="213.62" text-anchor="middle">81.69</text>
<text class="val" x="438.50" y="205.75" text-anchor="middle">87.02</text>
<text class="axis" x="400.25" y="364" text-anchor="middle">2b</text>
<text class="tick" x="400.25" y="380" text-anchor="middle">P:128.0 O:128.0</text>
<rect x="557.50" y="261.55" width="51.00" height="78.45" fill="#1f77b4"/>
<rect x="625.50" y="253.54" width="51.00" height="86.46" fill="#ff7f0e"/>
<text class="val" x="583.00" y="255.55" text-anchor="middle">53.24</text>
<text class="val" x="651.00" y="247.54" text-anchor="middle">58.67</text>
<text class="axis" x="612.75" y="364" text-anchor="middle">4b</text>
<text class="tick" x="612.75" y="380" text-anchor="middle">P:128.0 O:128.0</text>
<rect x="770.00" y="292.68" width="51.00" height="47.32" fill="#1f77b4"/>
<rect x="838.00" y="303.91" width="51.00" height="36.09" fill="#ff7f0e"/>
<text class="val" x="795.50" y="286.68" text-anchor="middle">32.11</text>
<text class="val" x="863.50" y="297.91" text-anchor="middle">24.49</text>
<text class="axis" x="825.25" y="364" text-anchor="middle">9b *</text>
<text class="tick" x="825.25" y="380" text-anchor="middle">P:104.6 O:128.0</text>
<rect x="730" y="68" width="14" height="14" fill="#1f77b4"/>
<text class="axis" x="750" y="80">Psionic</text>
<rect x="825" y="68" width="14" height="14" fill="#ff7f0e"/>
<text class="axis" x="845" y="80">Ollama</text>
<text class="tick" x="90" y="432">* non-comparable row by token-delta policy</text>
</svg>