<svg xmlns="http://www.w3.org/2000/svg" width="980" height="440" viewBox="0 0 980 440">
<style>
text { font-family: "DejaVu Sans", Arial, sans-serif; fill: #1f2937; }
.title { font-size: 20px; font-weight: 700; }
.axis { font-size: 12px; }
.tick { font-size: 11px; }
.val { font-size: 11px; font-weight: 600; }
</style>
<rect x="0" y="0" width="100%" height="100%" fill="#ffffff"/>
<text class="title" x="90" y="32">Qwen3.5 throughput: sampled_topk100</text>
<text class="axis" x="90" y="49">Decode throughput (tok/s), higher is better</text>
<line x1="90" y1="55.00" x2="940" y2="55.00" stroke="#e5e7eb" stroke-width="1"/>
<text class="tick" x="82" y="59.00" text-anchor="end">240</text>
<line x1="90" y1="111.00" x2="940" y2="111.00" stroke="#e5e7eb" stroke-width="1"/>
<text class="tick" x="82" y="115.00" text-anchor="end">192</text>
<line x1="90" y1="167.00" x2="940" y2="167.00" stroke="#e5e7eb" stroke-width="1"/>
<text class="tick" x="82" y="171.00" text-anchor="end">144</text>
<line x1="90" y1="223.00" x2="940" y2="223.00" stroke="#e5e7eb" stroke-width="1"/>
<text class="tick" x="82" y="227.00" text-anchor="end">96</text>
<line x1="90" y1="279.00" x2="940" y2="279.00" stroke="#e5e7eb" stroke-width="1"/>
<text class="tick" x="82" y="283.00" text-anchor="end">48</text>
<line x1="90" y1="335.00" x2="940" y2="335.00" stroke="#e5e7eb" stroke-width="1"/>
<text class="tick" x="82" y="339.00" text-anchor="end">0</text>
<line x1="90" y1="55" x2="90" y2="335" stroke="#111827" stroke-width="1.5"/>
<line x1="90" y1="335" x2="940" y2="335" stroke="#111827" stroke-width="1.5"/>
<rect x="132.50" y="100.02" width="55.25" height="234.98" fill="#1f77b4"/>
<rect x="204.75" y="162.81" width="55.25" height="172.19" fill="#ff7f0e"/>
<text class="val" x="160.12" y="94.02" text-anchor="middle">201.41</text>
<text class="val" x="232.38" y="156.81" text-anchor="middle">147.59</text>
<text class="axis" x="187.75" y="359" text-anchor="middle">0.8b *</text>
<text class="tick" x="187.75" y="375" text-anchor="middle">P:30 O:34</text>
<rect x="345.00" y="221.90" width="55.25" height="113.10" fill="#1f77b4"/>
<rect x="417.25" y="232.66" width="55.25" height="102.34" fill="#ff7f0e"/>
<text class="val" x="372.62" y="215.90" text-anchor="middle">96.94</text>
<text class="val" x="444.88" y="226.66" text-anchor="middle">87.72</text>
<text class="axis" x="400.25" y="359" text-anchor="middle">2b *</text>
<text class="tick" x="400.25" y="375" text-anchor="middle">P:42 O:44</text>
<rect x="557.50" y="267.85" width="55.25" height="67.15" fill="#1f77b4"/>
<rect x="629.75" y="265.15" width="55.25" height="69.85" fill="#ff7f0e"/>
<text class="val" x="585.12" y="261.85" text-anchor="middle">57.56</text>
<text class="val" x="657.38" y="259.15" text-anchor="middle">59.87</text>
<text class="axis" x="612.75" y="359" text-anchor="middle">4b *</text>
<text class="tick" x="612.75" y="375" text-anchor="middle">P:128 O:47</text>
<rect x="770.00" y="296.34" width="55.25" height="38.66" fill="#1f77b4"/>
<rect x="842.25" y="306.31" width="55.25" height="28.69" fill="#ff7f0e"/>
<text class="val" x="797.62" y="290.34" text-anchor="middle">33.14</text>
<text class="val" x="869.88" y="300.31" text-anchor="middle">24.59</text>
<text class="axis" x="825.25" y="359" text-anchor="middle">9b *</text>
<text class="tick" x="825.25" y="375" text-anchor="middle">P:23 O:37</text>
<rect x="730" y="63" width="14" height="14" fill="#1f77b4"/>
<text class="axis" x="750" y="75">Psionic</text>
<rect x="825" y="63" width="14" height="14" fill="#ff7f0e"/>
<text class="axis" x="845" y="75">Ollama</text>
<text class="tick" x="90" y="422">* output-token mismatch between backends in this row</text>
</svg>