<svg xmlns="http://www.w3.org/2000/svg" width="980" height="450" viewBox="0 0 980 450">
<style>
text { font-family: "DejaVu Sans", Arial, sans-serif; fill: #1f2937; }
.title { font-size: 20px; font-weight: 700; }
.axis { font-size: 12px; }
.tick { font-size: 11px; }
.val { font-size: 11px; font-weight: 600; }
</style>
<rect x="0" y="0" width="100%" height="100%" fill="#ffffff"/>
<text class="title" x="90" y="34">Qwen3.5 throughput: sampled_topk40</text>
<text class="axis" x="90" y="53">Decode throughput (tok/s), higher is better</text>
<line x1="90" y1="60.00" x2="940" y2="60.00" stroke="#e5e7eb" stroke-width="1"/>
<text class="tick" x="82" y="64.00" text-anchor="end">190</text>
<line x1="90" y1="116.00" x2="940" y2="116.00" stroke="#e5e7eb" stroke-width="1"/>
<text class="tick" x="82" y="120.00" text-anchor="end">152</text>
<line x1="90" y1="172.00" x2="940" y2="172.00" stroke="#e5e7eb" stroke-width="1"/>
<text class="tick" x="82" y="176.00" text-anchor="end">114</text>
<line x1="90" y1="228.00" x2="940" y2="228.00" stroke="#e5e7eb" stroke-width="1"/>
<text class="tick" x="82" y="232.00" text-anchor="end">76</text>
<line x1="90" y1="284.00" x2="940" y2="284.00" stroke="#e5e7eb" stroke-width="1"/>
<text class="tick" x="82" y="288.00" text-anchor="end">38</text>
<line x1="90" y1="340.00" x2="940" y2="340.00" stroke="#e5e7eb" stroke-width="1"/>
<text class="tick" x="82" y="344.00" text-anchor="end">0</text>
<line x1="90" y1="60" x2="90" y2="340" stroke="#111827" stroke-width="1.5"/>
<line x1="90" y1="340" x2="940" y2="340" stroke="#111827" stroke-width="1.5"/>
<rect x="132.50" y="119.21" width="51.00" height="220.79" fill="#1f77b4"/>
<rect x="200.50" y="102.45" width="51.00" height="237.55" fill="#ff7f0e"/>
<text class="val" x="158.00" y="113.21" text-anchor="middle">149.82</text>
<text class="val" x="226.00" y="96.45" text-anchor="middle">161.20</text>
<text class="axis" x="187.75" y="364" text-anchor="middle">0.8b</text>
<text class="tick" x="187.75" y="380" text-anchor="middle">P:128.0 O:128.0</text>
<rect x="345.00" y="219.59" width="51.00" height="120.41" fill="#1f77b4"/>
<rect x="413.00" y="211.96" width="51.00" height="128.04" fill="#ff7f0e"/>
<text class="val" x="370.50" y="213.59" text-anchor="middle">81.70</text>
<text class="val" x="438.50" y="205.96" text-anchor="middle">86.89</text>
<text class="axis" x="400.25" y="364" text-anchor="middle">2b</text>
<text class="tick" x="400.25" y="380" text-anchor="middle">P:128.0 O:128.0</text>
<rect x="557.50" y="261.71" width="51.00" height="78.29" fill="#1f77b4"/>
<rect x="625.50" y="253.64" width="51.00" height="86.36" fill="#ff7f0e"/>
<text class="val" x="583.00" y="255.71" text-anchor="middle">53.13</text>
<text class="val" x="651.00" y="247.64" text-anchor="middle">58.60</text>
<text class="axis" x="612.75" y="364" text-anchor="middle">4b</text>
<text class="tick" x="612.75" y="380" text-anchor="middle">P:128.0 O:128.0</text>
<rect x="770.00" y="292.67" width="51.00" height="47.33" fill="#1f77b4"/>
<rect x="838.00" y="305.06" width="51.00" height="34.94" fill="#ff7f0e"/>
<text class="val" x="795.50" y="286.67" text-anchor="middle">32.12</text>
<text class="val" x="863.50" y="299.06" text-anchor="middle">23.71</text>
<text class="axis" x="825.25" y="364" text-anchor="middle">9b *</text>
<text class="tick" x="825.25" y="380" text-anchor="middle">P:104.6 O:128.0</text>
<rect x="730" y="68" width="14" height="14" fill="#1f77b4"/>
<text class="axis" x="750" y="80">Psionic</text>
<rect x="825" y="68" width="14" height="14" fill="#ff7f0e"/>
<text class="axis" x="845" y="80">Ollama</text>
<text class="tick" x="90" y="432">* non-comparable row by token-delta policy</text>
</svg>