<svg xmlns="http://www.w3.org/2000/svg" width="980" height="450" viewBox="0 0 980 450">
<style>
text { font-family: "DejaVu Sans", Arial, sans-serif; fill: #1f2937; }
.title { font-size: 20px; font-weight: 700; }
.axis { font-size: 12px; }
.tick { font-size: 11px; }
.val { font-size: 11px; font-weight: 600; }
</style>
<rect x="0" y="0" width="100%" height="100%" fill="#ffffff"/>
<text class="title" x="90" y="34">Qwen3.5 throughput: sampled_topk100</text>
<text class="axis" x="90" y="53">Decode throughput (tok/s), higher is better</text>
<line x1="90" y1="60.00" x2="940" y2="60.00" stroke="#e5e7eb" stroke-width="1"/>
<text class="tick" x="82" y="64.00" text-anchor="end">230</text>
<line x1="90" y1="116.00" x2="940" y2="116.00" stroke="#e5e7eb" stroke-width="1"/>
<text class="tick" x="82" y="120.00" text-anchor="end">184</text>
<line x1="90" y1="172.00" x2="940" y2="172.00" stroke="#e5e7eb" stroke-width="1"/>
<text class="tick" x="82" y="176.00" text-anchor="end">138</text>
<line x1="90" y1="228.00" x2="940" y2="228.00" stroke="#e5e7eb" stroke-width="1"/>
<text class="tick" x="82" y="232.00" text-anchor="end">92</text>
<line x1="90" y1="284.00" x2="940" y2="284.00" stroke="#e5e7eb" stroke-width="1"/>
<text class="tick" x="82" y="288.00" text-anchor="end">46</text>
<line x1="90" y1="340.00" x2="940" y2="340.00" stroke="#e5e7eb" stroke-width="1"/>
<text class="tick" x="82" y="344.00" text-anchor="end">0</text>
<line x1="90" y1="60" x2="90" y2="340" stroke="#111827" stroke-width="1.5"/>
<line x1="90" y1="340" x2="940" y2="340" stroke="#111827" stroke-width="1.5"/>
<rect x="132.50" y="97.49" width="51.00" height="242.51" fill="#1f77b4"/>
<rect x="200.50" y="140.80" width="51.00" height="199.20" fill="#ff7f0e"/>
<text class="val" x="158.00" y="91.49" text-anchor="middle">199.21</text>
<text class="val" x="226.00" y="134.80" text-anchor="middle">163.63</text>
<text class="axis" x="187.75" y="364" text-anchor="middle">0.8b *</text>
<text class="tick" x="187.75" y="380" text-anchor="middle">P:22.6 O:34.0</text>
<rect x="345.00" y="222.68" width="51.00" height="117.32" fill="#1f77b4"/>
<rect x="413.00" y="232.46" width="51.00" height="107.54" fill="#ff7f0e"/>
<text class="val" x="370.50" y="216.68" text-anchor="middle">96.37</text>
<text class="val" x="438.50" y="226.46" text-anchor="middle">88.34</text>
<text class="axis" x="400.25" y="364" text-anchor="middle">2b *</text>
<text class="tick" x="400.25" y="380" text-anchor="middle">P:28.8 O:44.0</text>
<rect x="557.50" y="270.94" width="51.00" height="69.06" fill="#1f77b4"/>
<rect x="625.50" y="267.35" width="51.00" height="72.65" fill="#ff7f0e"/>
<text class="val" x="583.00" y="264.94" text-anchor="middle">56.73</text>
<text class="val" x="651.00" y="261.35" text-anchor="middle">59.68</text>
<text class="axis" x="612.75" y="364" text-anchor="middle">4b</text>
<text class="tick" x="612.75" y="380" text-anchor="middle">P:48.4 O:47.0</text>
<rect x="770.00" y="299.55" width="51.00" height="40.45" fill="#1f77b4"/>
<rect x="838.00" y="310.17" width="51.00" height="29.83" fill="#ff7f0e"/>
<text class="val" x="795.50" y="293.55" text-anchor="middle">33.22</text>
<text class="val" x="863.50" y="304.17" text-anchor="middle">24.50</text>
<text class="axis" x="825.25" y="364" text-anchor="middle">9b *</text>
<text class="tick" x="825.25" y="380" text-anchor="middle">P:23.6 O:37.0</text>
<rect x="730" y="68" width="14" height="14" fill="#1f77b4"/>
<text class="axis" x="750" y="80">Psionic</text>
<rect x="825" y="68" width="14" height="14" fill="#ff7f0e"/>
<text class="axis" x="845" y="80">Ollama</text>
<text class="tick" x="90" y="432">* non-comparable row by token-delta policy</text>
</svg>